TITLE ""
FILE "Disc4Track68.mp3" MP3
  TRACK 01 AUDIO
    TITLE "Disc4Track68_01"
    INDEX 01 00:00:00
  TRACK 02 AUDIO
    TITLE "Disc4Track68_02"
    INDEX 01 00:01:02
  TRACK 03 AUDIO
    TITLE "Disc4Track68_03"
    INDEX 01 00:02:39
  TRACK 04 AUDIO
    TITLE "Disc4Track68_04"
    INDEX 01 00:03:52
  TRACK 05 AUDIO
    TITLE "Disc4Track68_05"
    INDEX 01 00:08:57
  TRACK 06 AUDIO
    TITLE "Disc4Track68_06"
    INDEX 01 00:09:13
  TRACK 07 AUDIO
    TITLE "Disc4Track68_07"
    INDEX 01 00:10:32
  TRACK 08 AUDIO
    TITLE "Disc4Track68_08"
    INDEX 01 00:11:69
  TRACK 09 AUDIO
    TITLE "Disc4Track68_09"
    INDEX 01 00:13:11
  TRACK 10 AUDIO
    TITLE "Disc4Track68_10"
    INDEX 01 00:17:19
  TRACK 11 AUDIO
    TITLE "Disc4Track68_11"
    INDEX 01 00:17:50
  TRACK 12 AUDIO
    TITLE "Disc4Track68_12"
    INDEX 01 00:18:69
  TRACK 13 AUDIO
    TITLE "Disc4Track68_13"
    INDEX 01 00:20:11
  TRACK 14 AUDIO
    TITLE "Disc4Track68_14"
    INDEX 01 00:21:26
  TRACK 15 AUDIO
    TITLE "Disc4Track68_15"
    INDEX 01 00:23:17
  TRACK 16 AUDIO
    TITLE "Disc4Track68_16"
    INDEX 01 00:23:49
  TRACK 17 AUDIO
    TITLE "Disc4Track68_17"
    INDEX 01 00:24:58
  TRACK 18 AUDIO
    TITLE "Disc4Track68_18"
    INDEX 01 00:26:06
  TRACK 19 AUDIO
    TITLE "Disc4Track68_19"
    INDEX 01 00:27:13
  TRACK 20 AUDIO
    TITLE "Disc4Track68_20"
    INDEX 01 00:31:42
  TRACK 21 AUDIO
    TITLE "Disc4Track68_21"
    INDEX 01 00:32:01
  TRACK 22 AUDIO
    TITLE "Disc4Track68_22"
    INDEX 01 00:33:12
  TRACK 23 AUDIO
    TITLE "Disc4Track68_23"
    INDEX 01 00:35:32
  TRACK 24 AUDIO
    TITLE "Disc4Track68_24"
    INDEX 01 00:36:43
  TRACK 25 AUDIO
    TITLE "Disc4Track68_25"
    INDEX 01 00:38:38
  TRACK 26 AUDIO
    TITLE "Disc4Track68_26"
    INDEX 01 00:38:64
  TRACK 27 AUDIO
    TITLE "Disc4Track68_27"
    INDEX 01 00:39:73
  TRACK 28 AUDIO
    TITLE "Disc4Track68_28"
    INDEX 01 00:42:62
  TRACK 29 AUDIO
    TITLE "Disc4Track68_29"
    INDEX 01 00:43:71
  TRACK 30 AUDIO
    TITLE "Disc4Track68_30"
    INDEX 01 00:46:28
  TRACK 31 AUDIO
    TITLE "Disc4Track68_31"
    INDEX 01 00:46:61
  TRACK 32 AUDIO
    TITLE "Disc4Track68_32"
    INDEX 01 00:48:00
  TRACK 33 AUDIO
    TITLE "Disc4Track68_33"
    INDEX 01 00:49:30
  TRACK 34 AUDIO
    TITLE "Disc4Track68_34"
    INDEX 01 00:50:43
  TRACK 35 AUDIO
    TITLE "Disc4Track68_35"
    INDEX 01 00:56:42
  TRACK 36 AUDIO
    TITLE "Disc4Track68_36"
    INDEX 01 00:56:73
  TRACK 37 AUDIO
    TITLE "Disc4Track68_37"
    INDEX 01 00:58:14
  TRACK 38 AUDIO
    TITLE "Disc4Track68_38"
    INDEX 01 01:00:16
  TRACK 39 AUDIO
    TITLE "Disc4Track68_39"
    INDEX 01 01:01:30
  TRACK 40 AUDIO
    TITLE "Disc4Track68_40"
    INDEX 01 01:04:42
  TRACK 41 AUDIO
    TITLE "Disc4Track68_41"
    INDEX 01 01:05:00
  TRACK 42 AUDIO
    TITLE "Disc4Track68_42"
    INDEX 01 01:06:21
  TRACK 43 AUDIO
    TITLE "Disc4Track68_43"
    INDEX 01 01:07:30
  TRACK 44 AUDIO
    TITLE "Disc4Track68_44"
    INDEX 01 01:08:51
  TRACK 45 AUDIO
    TITLE "Disc4Track68_45"
    INDEX 01 01:11:03
  TRACK 46 AUDIO
    TITLE "Disc4Track68_46"
    INDEX 01 01:11:34
  TRACK 47 AUDIO
    TITLE "Disc4Track68_47"
    INDEX 01 01:12:51
  TRACK 48 AUDIO
    TITLE "Disc4Track68_48"
    INDEX 01 01:14:50
  TRACK 49 AUDIO
    TITLE "Disc4Track68_49"
    INDEX 01 01:15:63
  TRACK 50 AUDIO
    TITLE "Disc4Track68_50"
    INDEX 01 01:19:20
  TRACK 51 AUDIO
    TITLE "Disc4Track68_51"
    INDEX 01 01:19:51
  TRACK 52 AUDIO
    TITLE "Disc4Track68_52"
    INDEX 01 01:20:62
  TRACK 53 AUDIO
    TITLE "Disc4Track68_53"
    INDEX 01 01:25:38
  TRACK 54 AUDIO
    TITLE "Disc4Track68_54"
    INDEX 01 01:26:47
  TRACK 55 AUDIO
    TITLE "Disc4Track68_55"
    INDEX 01 01:30:70
